<svg width="578" height="110" viewBox="0 0 578 110" fill="none" xmlns="http://www.w3.org/2000/svg">
<path d="M50.612 19.3685L0 90.6802H101.11L50.612 19.3685Z" fill="#656868"/>
<path d="M50.6114 70.663L36.3945 90.6803H64.7145L50.6114 70.663Z" fill="#FCAF17"/>
<path d="M241.458 18.7998L225.08 42.9116L208.702 18.7998L159.455 91.2489H192.211H257.836H290.705L241.458 18.7998Z" fill="#656868"/>
<path d="M221.555 72.369L208.135 91.249H234.862L221.555 72.369Z" fill="#FCAF17"/>
<path d="M156.385 64.0667V65.8865C156.385 79.8758 145.011 91.2493 131.022 91.2493H109.412V44.8455H137.163C144.556 44.8455 150.925 48.94 154.11 55.0817C155.588 57.6976 156.385 60.7684 156.385 64.0667Z" fill="#FCAF17"/>
<path d="M131.022 18.7998H109.412V39.2721V63.0426H132.955V44.8451H137.163C144.556 44.8451 150.925 48.9395 154.11 55.0812C155.588 52.3516 156.385 49.2807 156.385 45.9824V44.1627C156.385 30.1733 145.011 18.7998 131.022 18.7998Z" fill="#656868"/>
<path d="M50.6114 43.8215L36.3945 63.9525H64.7145L50.6114 43.8215Z" fill="#FCAF17"/>
<path d="M300.147 19.1414H298.441V91.2492H300.147V19.1414Z" fill="#555555"/>
<path d="M309.699 31.5384C309.471 31.5384 309.357 31.5384 309.13 31.5384C309.016 31.5384 308.789 31.5384 308.789 31.4247V30.7423C308.903 30.7423 309.016 30.856 309.13 30.856C309.244 30.856 309.471 30.856 309.699 30.856C310.04 30.856 310.267 30.7423 310.495 30.5148C310.722 30.2874 310.95 30.0599 311.063 29.6049L311.177 29.3775L307.879 22.6671H308.789L311.632 28.4676L314.362 22.6671H315.272L311.86 29.8324C311.632 30.1736 311.518 30.5148 311.291 30.7423C311.063 30.9698 310.95 31.0835 310.722 31.311C310.495 31.4247 310.381 31.5384 310.154 31.5384C310.154 31.5384 309.926 31.5384 309.699 31.5384ZM311.86 21.9847C311.291 21.9847 310.95 21.871 310.609 21.5298C310.267 21.3023 310.154 20.8474 310.04 20.3924H310.495C310.495 20.7336 310.609 20.9611 310.836 21.0748C311.063 21.3023 311.291 21.3023 311.746 21.3023C312.087 21.3023 312.428 21.1886 312.656 21.0748C312.883 20.8474 312.997 20.6199 313.111 20.2787H313.566C313.452 20.8474 313.338 21.1886 312.997 21.416C312.77 21.871 312.315 21.9847 311.86 21.9847Z" fill="#555555"/>
<path d="M318.229 31.6521C317.433 31.6521 316.751 31.4247 316.296 31.0835C315.841 30.7423 315.613 30.1736 315.613 29.4912H316.409C316.409 29.7186 316.523 29.9461 316.637 30.0598C316.751 30.2873 316.864 30.4011 316.978 30.5148C317.092 30.6285 317.319 30.7422 317.547 30.856C317.774 30.9697 318.002 30.9697 318.343 30.9697C318.684 30.9697 319.025 30.9697 319.253 30.856C319.48 30.7422 319.594 30.6285 319.821 30.5148C319.935 30.4011 320.049 30.2873 320.049 30.0598C320.049 29.9461 320.163 29.7186 320.163 29.6049C320.163 29.2637 320.049 29.0362 319.821 28.8088C319.594 28.5813 319.253 28.4676 318.798 28.4676H317.774V27.8989H318.684C319.025 27.8989 319.367 27.7851 319.594 27.5577C319.821 27.3302 319.935 27.1027 319.935 26.6478C319.935 26.5341 319.935 26.4203 319.935 26.3066C319.935 26.1929 319.821 26.0791 319.708 25.9654C319.594 25.8517 319.48 25.7379 319.253 25.7379C319.025 25.6242 318.798 25.6242 318.457 25.6242C317.888 25.6242 317.433 25.7379 317.206 25.9654C316.978 26.1929 316.751 26.5341 316.751 26.8753H315.954C315.954 26.5341 316.068 26.1929 316.182 25.9654C316.296 25.7379 316.523 25.5105 316.751 25.3967C316.978 25.283 317.206 25.1692 317.547 25.0555C317.888 24.9418 318.115 24.9418 318.457 24.9418C318.798 24.9418 319.139 24.9418 319.367 25.0555C319.594 25.1692 319.935 25.1693 320.163 25.3967C320.39 25.5105 320.504 25.7379 320.618 25.9654C320.731 26.1929 320.845 26.4203 320.845 26.7615C320.845 26.989 320.845 27.1027 320.731 27.3302C320.618 27.4439 320.618 27.6714 320.504 27.7851C320.39 27.8989 320.276 28.0126 320.163 28.1264C320.049 28.2401 319.935 28.2401 319.821 28.2401C319.935 28.2401 320.163 28.3538 320.276 28.3538C320.39 28.4676 320.504 28.4675 320.618 28.5813C320.731 28.695 320.845 28.8088 320.845 29.0362C320.959 29.2637 320.959 29.3774 320.959 29.7186C320.959 30.0598 320.845 30.401 320.731 30.6285C320.618 30.856 320.39 31.0835 320.163 31.3109C319.935 31.5384 319.708 31.6521 319.367 31.6521C318.912 31.5384 318.57 31.6521 318.229 31.6521Z" fill="#555555"/>
<path d="M324.713 31.6521C324.144 31.6521 323.689 31.5384 323.234 31.3109C322.893 31.0835 322.552 30.856 322.325 30.5148C322.097 30.1736 321.983 29.7186 321.87 29.2637C321.756 28.8088 321.756 28.3538 321.756 27.8989C321.756 27.5577 321.756 27.3302 321.756 26.989C321.756 26.6478 321.87 26.3066 321.87 25.9654C321.87 25.6242 321.983 25.283 322.097 25.0555C322.211 24.7143 322.325 24.4869 322.438 24.2594C322.779 23.8044 323.121 23.4632 323.462 23.3495C323.917 23.122 324.372 23.0083 324.94 23.0083H325.509C325.85 23.0083 326.078 23.0083 326.192 22.8945C326.305 22.8945 326.419 22.7808 326.419 22.6671H327.329C327.215 23.0083 327.101 23.3495 326.874 23.4632C326.646 23.577 326.192 23.6907 325.623 23.6907L324.713 23.8044C324.031 23.8044 323.462 24.1456 323.121 24.6006C322.779 25.0555 322.438 25.7379 322.325 26.7615C322.552 26.3066 322.893 25.9654 323.234 25.7379C323.689 25.5105 324.144 25.3967 324.599 25.3967C325.054 25.3967 325.395 25.5105 325.737 25.6242C326.078 25.7379 326.419 25.9654 326.646 26.3066C326.874 26.5341 327.101 26.8753 327.215 27.3302C327.329 27.7852 327.443 28.1264 327.443 28.695C327.443 29.15 327.329 29.6049 327.215 30.0598C327.101 30.5148 326.874 30.856 326.646 31.0835C326.419 31.4247 326.078 31.5384 325.737 31.7659C325.509 31.5384 325.054 31.6521 324.713 31.6521ZM324.713 30.9697C325.054 30.9697 325.282 30.856 325.623 30.7423C325.85 30.6285 326.078 30.4011 326.305 30.1736C326.533 29.9461 326.646 29.7187 326.76 29.3774C326.874 29.0362 326.874 28.695 326.874 28.3538C326.874 28.0126 326.874 27.6714 326.76 27.3302C326.646 26.989 326.533 26.7615 326.305 26.5341C326.078 26.3066 325.85 26.0791 325.623 25.9654C325.395 25.8517 325.054 25.7379 324.827 25.7379C324.486 25.7379 324.258 25.8517 323.917 25.9654C323.689 26.0791 323.462 26.3066 323.234 26.5341C323.007 26.7615 322.893 26.989 322.779 27.3302C322.666 27.6714 322.666 28.0126 322.666 28.3538C322.666 28.695 322.666 29.15 322.779 29.3774C322.893 29.7187 323.007 29.9461 323.234 30.1736C323.462 30.4011 323.689 30.6285 323.917 30.7423C324.031 30.9697 324.372 30.9697 324.713 30.9697Z" fill="#555555"/>
<path d="M331.31 31.6522C330.855 31.6522 330.4 31.5384 330.059 31.4247C329.717 31.1972 329.376 30.9698 329.149 30.7423C328.921 30.4011 328.808 30.0599 328.694 29.7187C328.58 29.2638 328.58 28.9226 328.58 28.4676C328.58 28.0127 328.58 27.6715 328.694 27.2165C328.808 26.7616 328.921 26.4204 329.149 26.1929C329.376 25.8517 329.717 25.6243 330.059 25.3968C330.4 25.1693 330.855 25.0556 331.31 25.0556C331.765 25.0556 332.22 25.1693 332.561 25.3968C332.902 25.6243 333.243 25.8517 333.471 26.1929C333.698 26.5341 333.812 26.8753 333.926 27.3303C334.039 27.7852 334.039 28.2401 334.039 28.5813H329.149C329.149 28.9225 329.149 29.15 329.262 29.4912C329.376 29.8324 329.49 30.0599 329.604 30.2874C329.831 30.5148 329.945 30.7423 330.286 30.856C330.514 30.9698 330.855 31.0835 331.196 31.0835C331.765 31.0835 332.22 30.9698 332.561 30.6286C332.902 30.2874 333.129 29.9462 333.243 29.4912H334.039C333.926 30.1736 333.584 30.7423 333.129 31.1972C332.675 31.4247 332.106 31.6522 331.31 31.6522ZM333.243 27.8989C333.243 27.5577 333.129 27.3303 333.129 27.1028C333.016 26.8753 332.902 26.6479 332.788 26.4204C332.561 26.1929 332.447 26.0792 332.22 25.9655C331.992 25.8517 331.651 25.738 331.423 25.738C331.082 25.738 330.855 25.8517 330.627 25.9655C330.4 26.0792 330.172 26.3067 330.059 26.4204C329.831 26.6479 329.717 26.8753 329.604 27.1028C329.49 27.3303 329.49 27.6715 329.376 27.8989H333.243Z" fill="#555555"/>
<path d="M335.062 25.1693H335.859V28.4676L339.384 25.1693H340.408L337.678 27.6715L340.522 31.5384H339.498L337.11 28.2401L335.859 29.3775V31.5384H335.062V25.1693Z" fill="#555555"/>
<path d="M341.205 25.1693H342.001V30.6286L345.527 25.1693H346.437V31.5384H345.641V26.0792L342.115 31.5384H341.205V25.1693Z" fill="#555555"/>
<path d="M350.529 31.6522C350.074 31.6522 349.619 31.5384 349.278 31.4247C348.937 31.311 348.596 30.9698 348.368 30.7423C348.141 30.4011 347.913 30.0599 347.8 29.7187C347.686 29.2637 347.572 28.9225 347.572 28.4676C347.572 28.0127 347.686 27.5577 347.8 27.2165C347.913 26.7616 348.141 26.4204 348.368 26.1929C348.596 25.8517 348.937 25.6242 349.278 25.5105C349.619 25.283 350.074 25.283 350.529 25.283C351.212 25.283 351.78 25.5105 352.235 25.8517C352.69 26.1929 353.032 26.7616 353.032 27.444H352.235C352.122 26.989 351.894 26.6478 351.667 26.3066C351.326 26.0792 350.984 25.8517 350.416 25.8517C350.074 25.8517 349.733 25.9654 349.392 26.0792C349.165 26.1929 348.937 26.4204 348.71 26.6478C348.482 26.8753 348.368 27.2165 348.255 27.5577C348.141 27.8989 348.141 28.2401 348.141 28.5813C348.141 28.9225 348.141 29.2637 348.255 29.6049C348.368 29.9462 348.482 30.1736 348.71 30.5148C348.937 30.7423 349.165 30.9698 349.392 31.0835C349.619 31.1972 349.961 31.311 350.416 31.311C350.643 31.311 350.871 31.311 351.098 31.1972C351.326 31.0835 351.553 30.9698 351.667 30.856C351.78 30.7423 352.008 30.5148 352.122 30.2873C352.235 30.0599 352.349 29.8324 352.349 29.6049H353.145C353.032 30.4011 352.804 30.9698 352.349 31.4247C351.78 31.4247 351.212 31.6522 350.529 31.6522Z" fill="#555555"/>
<path d="M355.761 25.8517H353.373V25.1693H358.832V25.8517H356.444V31.5384H355.648V25.8517H355.761Z" fill="#555555"/>
<path d="M362.246 31.6522C361.791 31.6522 361.336 31.5384 360.995 31.4247C360.654 31.311 360.313 30.9698 360.085 30.7423C359.858 30.4011 359.63 30.0599 359.517 29.7187C359.403 29.2637 359.289 28.9225 359.289 28.4676C359.289 28.0127 359.403 27.5577 359.517 27.2165C359.63 26.7616 359.858 26.4204 360.085 26.1929C360.313 25.8517 360.654 25.6242 360.995 25.5105C361.336 25.283 361.791 25.283 362.246 25.283C362.701 25.283 363.156 25.3968 363.497 25.5105C363.838 25.738 364.18 25.9654 364.407 26.1929C364.635 26.5341 364.862 26.8753 364.976 27.2165C365.09 27.6714 365.203 28.0127 365.203 28.4676C365.203 28.9225 365.09 29.3775 364.976 29.7187C364.862 30.1736 364.635 30.5148 364.407 30.7423C364.18 31.0835 363.838 31.311 363.497 31.4247C363.156 31.5384 362.815 31.6522 362.246 31.6522ZM362.246 30.9698C362.587 30.9698 362.929 30.856 363.27 30.7423C363.497 30.6286 363.725 30.4011 363.952 30.1736C364.18 29.9462 364.293 29.6049 364.407 29.2637C364.521 28.9225 364.521 28.5813 364.521 28.2401C364.521 27.8989 364.521 27.5577 364.407 27.2165C364.293 26.8753 364.18 26.6478 363.952 26.3066C363.725 26.0792 363.497 25.8517 363.27 25.738C363.042 25.6242 362.701 25.5105 362.246 25.5105C361.905 25.5105 361.564 25.6242 361.223 25.738C360.995 25.8517 360.768 26.0792 360.54 26.3066C360.313 26.5341 360.199 26.8753 360.085 27.2165C359.971 27.5577 359.971 27.8989 359.971 28.2401C359.971 28.5813 359.971 28.9225 360.085 29.2637C360.199 29.6049 360.313 29.8324 360.54 30.1736C360.768 30.4011 360.995 30.6286 361.223 30.7423C361.564 30.9698 361.905 30.9698 362.246 30.9698Z" fill="#555555"/>
<path d="M366.454 25.1693H367.25V27.7852H370.889V25.1693H371.685V31.5384H370.775V28.5813H367.136V31.5384H366.34V25.1693H366.454Z" fill="#555555"/>
<path d="M376.576 22.6671H380.443C380.784 22.6671 381.239 22.6671 381.467 22.7808C381.808 22.8946 382.035 23.0083 382.263 23.2358C382.49 23.4632 382.718 23.6907 382.832 24.0319C382.945 24.3731 383.059 24.7143 383.059 25.0555C383.059 25.3967 382.945 25.8517 382.832 26.0791C382.718 26.4203 382.49 26.6478 382.263 26.8753C382.035 27.1027 381.808 27.2165 381.467 27.3302C381.126 27.444 380.784 27.4439 380.443 27.4439H377.372V31.1972H376.576V22.6671ZM380.216 26.989C380.784 26.989 381.239 26.8753 381.58 26.5341C381.922 26.1929 382.149 25.7379 382.149 25.1692C382.149 24.6006 381.922 24.1456 381.58 23.8044C381.239 23.4632 380.784 23.3495 380.216 23.3495H377.372V26.8753H380.216V26.989Z" fill="#555555"/>
<path d="M386.698 31.6522C386.243 31.6522 385.788 31.5384 385.447 31.4247C385.106 31.1972 384.765 30.9698 384.537 30.7423C384.31 30.4011 384.196 30.0599 384.082 29.7187C383.969 29.2638 383.969 28.9226 383.969 28.4676C383.969 28.0127 383.969 27.6715 384.082 27.2165C384.196 26.7616 384.31 26.4204 384.537 26.1929C384.765 25.8517 385.106 25.6243 385.447 25.3968C385.788 25.1693 386.243 25.0556 386.698 25.0556C387.153 25.0556 387.608 25.1693 387.949 25.3968C388.291 25.6243 388.632 25.8517 388.859 26.1929C389.087 26.5341 389.201 26.8753 389.314 27.3303C389.428 27.7852 389.428 28.2401 389.428 28.5813H384.537C384.537 28.9225 384.537 29.15 384.651 29.4912C384.765 29.8324 384.879 30.0599 384.992 30.2874C385.22 30.5148 385.334 30.7423 385.675 30.856C385.902 30.9698 386.243 31.0835 386.585 31.0835C387.153 31.0835 387.608 30.9698 387.949 30.6286C388.291 30.2874 388.518 29.9462 388.632 29.4912H389.428C389.314 30.1736 388.973 30.7423 388.518 31.1972C388.063 31.4247 387.495 31.6522 386.698 31.6522ZM388.632 27.8989C388.632 27.5577 388.518 27.3303 388.518 27.1028C388.404 26.8753 388.291 26.6479 388.177 26.4204C387.949 26.1929 387.836 26.0792 387.608 25.9655C387.381 25.8517 387.04 25.738 386.812 25.738C386.471 25.738 386.243 25.8517 386.016 25.9655C385.788 26.0792 385.561 26.3067 385.447 26.4204C385.22 26.6479 385.106 26.8753 384.992 27.1028C384.879 27.3303 384.879 27.6715 384.765 27.8989H388.632Z" fill="#555555"/>
<path d="M393.18 31.6522C392.725 31.6522 392.27 31.5384 391.929 31.4247C391.587 31.311 391.246 30.9698 391.019 30.7423C390.791 30.4011 390.564 30.0599 390.45 29.7187C390.336 29.2637 390.223 28.9225 390.223 28.4676C390.223 28.0127 390.336 27.5577 390.45 27.2165C390.564 26.7616 390.791 26.4204 391.019 26.1929C391.246 25.8517 391.587 25.6242 391.929 25.5105C392.27 25.283 392.725 25.283 393.18 25.283C393.862 25.283 394.431 25.5105 394.886 25.8517C395.341 26.1929 395.682 26.7616 395.682 27.444H394.886C394.772 26.989 394.545 26.6478 394.317 26.3066C393.976 26.0792 393.635 25.8517 393.066 25.8517C392.725 25.8517 392.384 25.9654 392.042 26.0792C391.815 26.1929 391.587 26.4204 391.36 26.6478C391.133 26.8753 391.019 27.2165 390.905 27.5577C390.791 27.8989 390.791 28.2401 390.791 28.5813C390.791 28.9225 390.791 29.2637 390.905 29.6049C391.019 29.9462 391.133 30.1736 391.36 30.5148C391.587 30.7423 391.815 30.9698 392.042 31.0835C392.27 31.1972 392.611 31.311 393.066 31.311C393.293 31.311 393.521 31.311 393.748 31.1972C393.976 31.0835 394.203 30.9698 394.317 30.856C394.431 30.7423 394.658 30.5148 394.772 30.2873C394.886 30.0599 394.999 29.8324 394.999 29.6049H395.796C395.682 30.4011 395.454 30.9698 394.999 31.4247C394.431 31.4247 393.862 31.6522 393.18 31.6522Z" fill="#555555"/>
<path d="M396.819 25.1693H401.823V31.5384H401.027V25.8517H397.501V31.5384H396.705V25.1693H396.819Z" fill="#555555"/>
<path d="M403.758 33.8132C403.645 33.8132 403.531 33.8132 403.417 33.8132C403.304 33.8132 403.304 33.8132 403.19 33.8132V33.1307C403.304 33.1307 403.417 33.1307 403.417 33.1307C403.531 33.1307 403.645 33.1307 403.645 33.1307C403.872 33.1307 403.986 33.1307 404.1 33.017C404.213 33.017 404.327 32.9033 404.441 32.7895C404.555 32.6758 404.555 32.5621 404.668 32.4483C404.668 32.3346 404.782 32.2209 404.896 31.9934L405.123 31.311L402.621 25.0556H403.417L405.464 30.4011L407.398 25.0556H408.194L405.464 32.3346C405.351 32.5621 405.237 32.7895 405.123 33.017C405.01 33.2445 404.896 33.3582 404.782 33.4719C404.668 33.5857 404.555 33.6994 404.327 33.6994C404.213 33.8131 404.1 33.8132 403.758 33.8132Z" fill="#555555"/>
<path d="M411.721 31.6521C411.152 31.6521 410.697 31.5384 410.242 31.3109C409.901 31.0835 409.56 30.856 409.332 30.5148C409.105 30.1736 408.991 29.7186 408.877 29.2637C408.764 28.8088 408.764 28.3538 408.764 27.8989C408.764 27.5577 408.764 27.3302 408.764 26.989C408.764 26.6478 408.877 26.3066 408.877 25.9654C408.991 25.6242 408.991 25.283 409.105 25.0555C409.219 24.7143 409.332 24.4869 409.446 24.2594C409.787 23.8044 410.128 23.4632 410.47 23.3495C410.925 23.122 411.38 23.0083 411.948 23.0083H412.517C412.858 23.0083 413.086 23.0083 413.199 22.8945C413.313 22.8945 413.427 22.7808 413.427 22.6671H414.337C414.223 23.0083 414.109 23.3495 413.882 23.4632C413.654 23.577 413.199 23.6907 412.631 23.6907L411.721 23.8044C411.038 23.8044 410.47 24.1456 410.129 24.6006C409.787 25.0555 409.446 25.7379 409.332 26.7615C409.56 26.3066 409.901 25.9654 410.242 25.7379C410.697 25.5105 411.152 25.3967 411.607 25.3967C412.062 25.3967 412.403 25.5105 412.744 25.6242C413.086 25.7379 413.427 25.9654 413.654 26.3066C413.882 26.5341 414.109 26.8753 414.223 27.3302C414.337 27.7852 414.45 28.1264 414.45 28.695C414.45 29.15 414.337 29.6049 414.223 30.0598C414.109 30.5148 413.882 30.856 413.654 31.0835C413.427 31.4247 413.086 31.5384 412.744 31.7659C412.517 31.5384 412.176 31.6521 411.721 31.6521ZM411.721 30.9697C412.062 30.9697 412.289 30.856 412.631 30.7423C412.858 30.6285 413.086 30.4011 413.313 30.1736C413.541 29.9461 413.654 29.7187 413.768 29.3774C413.882 29.0362 413.882 28.695 413.882 28.3538C413.882 28.0126 413.882 27.6714 413.768 27.3302C413.654 26.989 413.541 26.7615 413.313 26.5341C413.086 26.3066 412.858 26.0791 412.631 25.9654C412.403 25.8517 412.062 25.7379 411.835 25.7379C411.493 25.7379 411.266 25.8517 410.925 25.9654C410.697 26.0791 410.47 26.3066 410.242 26.5341C410.015 26.7615 409.901 26.989 409.787 27.3302C409.674 27.6714 409.674 28.0126 409.674 28.3538C409.674 28.695 409.674 29.15 409.787 29.3774C409.901 29.7187 410.015 29.9461 410.242 30.1736C410.47 30.4011 410.697 30.6285 410.925 30.7423C411.152 30.9697 411.38 30.9697 411.721 30.9697Z" fill="#555555"/>
<path d="M415.7 31.5384H415.586C415.473 31.5384 415.473 31.5384 415.359 31.5384C415.245 31.5384 415.245 31.5384 415.131 31.5384H415.018V30.856C415.131 30.856 415.131 30.856 415.359 30.9698C415.473 30.9698 415.586 30.9698 415.7 30.9698C415.814 30.9698 415.927 30.9698 415.927 30.9698C416.041 30.9698 416.155 30.856 416.269 30.7423C416.382 30.6286 416.496 30.5148 416.496 30.1736C416.61 29.9462 416.61 29.6049 416.724 29.15C416.837 28.6951 416.837 28.2401 416.837 27.5577C416.837 26.8753 416.951 26.0792 416.951 25.1693H421.159V31.5384H420.363V25.8517H417.634C417.634 26.7616 417.633 27.5577 417.52 28.1264C417.52 28.8088 417.406 29.2637 417.292 29.7187C417.179 30.1736 417.065 30.5148 416.951 30.7423C416.837 30.9698 416.724 31.1972 416.496 31.311C416.382 31.4247 416.155 31.5384 416.041 31.5384C416.041 31.5384 415.927 31.5384 415.7 31.5384Z" fill="#555555"/>
<path d="M422.639 25.1693H423.435V30.6286L426.961 25.1693H427.87V31.5384H427.074V26.0792L423.549 31.5384H422.639V25.1693V25.1693Z" fill="#555555"/>
<path d="M429.348 25.1693H430.144V28.4676L433.67 25.1693H434.693L431.964 27.6715L434.807 31.5384H433.783L431.395 28.2401L430.144 29.3775V31.5384H429.348V25.1693Z" fill="#555555"/>
<path d="M437.196 31.6522C436.855 31.6522 436.627 31.6522 436.4 31.5384C436.172 31.4247 435.945 31.311 435.717 31.1972C435.49 31.0835 435.376 30.856 435.262 30.6286C435.148 30.4011 435.148 30.1736 435.148 29.8324C435.148 29.3775 435.262 29.0363 435.49 28.8088C435.717 28.5813 435.945 28.3539 436.286 28.2401C436.627 28.1264 436.968 28.0127 437.423 28.0127C437.878 28.0127 438.219 27.8989 438.674 27.8989C438.788 27.8989 439.015 27.8989 439.129 27.7852C439.243 27.7852 439.357 27.6715 439.47 27.6715C439.584 27.5577 439.584 27.5577 439.698 27.444C439.698 27.3302 439.812 27.2165 439.812 26.989C439.812 26.7616 439.812 26.5341 439.698 26.3066C439.584 26.1929 439.47 25.9654 439.357 25.9654C439.243 25.8517 439.015 25.8517 438.788 25.738C438.56 25.738 438.333 25.738 438.106 25.738C437.651 25.738 437.196 25.8517 436.854 26.0792C436.513 26.3066 436.4 26.6478 436.4 27.2165H435.603C435.603 26.4204 435.945 25.9654 436.4 25.6242C436.855 25.283 437.423 25.1693 438.219 25.1693C438.447 25.1693 438.788 25.1693 439.015 25.283C439.243 25.283 439.584 25.3968 439.812 25.6242C440.039 25.738 440.267 25.9654 440.38 26.1929C440.494 26.4204 440.608 26.7616 440.608 27.2165V30.5148C440.608 30.856 440.721 30.9698 441.063 30.9698C441.176 30.9698 441.29 30.9698 441.29 30.9698V31.6522C441.176 31.6522 441.176 31.6522 441.063 31.6522C440.949 31.6522 440.949 31.6522 440.835 31.6522C440.608 31.6522 440.494 31.6522 440.38 31.5384C440.267 31.5384 440.153 31.4247 440.153 31.311C440.039 31.1972 440.039 31.0835 440.039 30.9698C440.039 30.856 440.039 30.7423 440.039 30.5148C439.925 30.7423 439.812 30.856 439.584 31.0835C439.47 31.1972 439.243 31.4247 439.129 31.4247C438.902 31.5384 438.788 31.6522 438.56 31.6522C437.764 31.6522 437.537 31.6522 437.196 31.6522ZM437.309 30.9698C437.651 30.9698 437.878 30.9698 438.106 30.856C438.333 30.7423 438.56 30.6286 438.788 30.5148C439.015 30.2874 439.129 30.1736 439.243 29.9462C439.357 29.7187 439.47 29.3775 439.47 29.15V28.1264C439.47 28.2401 439.357 28.2401 439.243 28.3539C439.129 28.3539 439.015 28.4676 438.902 28.4676C438.561 28.4676 438.219 28.5813 437.878 28.5813C437.537 28.5813 437.196 28.6951 436.968 28.8088C436.627 28.9225 436.4 29.0363 436.286 29.15C436.058 29.3775 436.058 29.6049 436.058 29.8324C436.058 30.0599 436.058 30.1736 436.172 30.4011C436.286 30.5148 436.4 30.6286 436.513 30.7423C436.627 30.856 436.741 30.9698 436.968 30.9698C436.968 30.9698 437.082 30.9698 437.309 30.9698Z" fill="#555555"/>
<path d="M444.475 31.6522C444.02 31.6522 443.565 31.5384 443.224 31.4247C442.882 31.1972 442.541 30.9698 442.314 30.7423C442.086 30.4011 441.859 30.0599 441.745 29.7187C441.631 29.2637 441.518 28.9225 441.518 28.4676C441.518 28.0127 441.631 27.5577 441.745 27.2165C441.859 26.7616 442.086 26.4204 442.314 26.1929C442.541 25.8517 442.882 25.6242 443.224 25.5105C443.565 25.283 444.02 25.283 444.475 25.283C445.157 25.283 445.726 25.5105 446.181 25.8517C446.636 26.1929 446.977 26.7616 446.977 27.444H446.181C446.067 26.989 445.839 26.6478 445.612 26.3066C445.271 26.0792 444.93 25.8517 444.361 25.8517C444.02 25.8517 443.679 25.9654 443.337 26.0792C443.11 26.1929 442.882 26.4204 442.655 26.6478C442.427 26.8753 442.314 27.2165 442.2 27.5577C442.086 27.8989 442.086 28.2401 442.086 28.5813C442.086 28.9225 442.086 29.2637 442.2 29.6049C442.314 29.9462 442.427 30.1736 442.655 30.5148C442.882 30.7423 443.11 30.9698 443.337 31.0835C443.565 31.1972 443.906 31.311 444.361 31.311C444.588 31.311 444.816 31.311 445.043 31.1972C445.271 31.0835 445.498 30.9698 445.612 30.856C445.726 30.7423 445.953 30.5148 446.067 30.2873C446.181 30.0599 446.294 29.8324 446.294 29.6049H447.091C446.977 30.4011 446.749 30.9698 446.294 31.4247C445.84 31.4247 445.157 31.6522 444.475 31.6522Z" fill="#555555"/>
<path d="M448.115 25.1693H448.911V30.6286L452.437 25.1693H453.347V31.5384H452.551V26.0792L449.025 31.5384H448.115V25.1693Z" fill="#555555"/>
<path d="M458.352 22.6671H459.603L462.673 30.2873L465.631 22.6671H466.882V31.4247H466.086V23.9182L463.128 31.4247H462.332L459.375 23.9182V31.4247H458.352V22.6671Z" fill="#555555"/>
<path d="M470.178 31.6522C469.837 31.6522 469.609 31.6522 469.382 31.5384C469.155 31.4247 468.927 31.311 468.7 31.1972C468.472 31.0835 468.358 30.856 468.245 30.6286C468.131 30.4011 468.131 30.1736 468.131 29.8324C468.131 29.3775 468.245 29.0363 468.472 28.8088C468.7 28.5813 468.927 28.3539 469.268 28.2401C469.609 28.1264 469.951 28.0127 470.406 28.0127C470.86 28.0127 471.202 27.8989 471.657 27.8989C471.77 27.8989 471.998 27.8989 472.112 27.7852C472.225 27.7852 472.339 27.6715 472.453 27.6715C472.567 27.5577 472.567 27.5577 472.68 27.444C472.68 27.3302 472.794 27.2165 472.794 26.989C472.794 26.7616 472.794 26.5341 472.68 26.3066C472.567 26.1929 472.453 25.9654 472.339 25.9654C472.225 25.8517 471.998 25.8517 471.77 25.738C471.543 25.738 471.315 25.738 471.088 25.738C470.633 25.738 470.178 25.8517 469.837 26.0792C469.496 26.3066 469.382 26.6478 469.382 27.2165H468.586C468.586 26.4204 468.927 25.9654 469.382 25.6242C469.837 25.283 470.406 25.1693 471.202 25.1693C471.429 25.1693 471.77 25.1693 471.998 25.283C472.225 25.283 472.567 25.3968 472.794 25.6242C473.021 25.738 473.249 25.9654 473.363 26.1929C473.476 26.4204 473.59 26.7616 473.59 27.2165V30.5148C473.59 30.856 473.704 30.9698 474.045 30.9698C474.159 30.9698 474.273 30.9698 474.273 30.9698V31.6522C474.159 31.6522 474.159 31.6522 474.045 31.6522C473.931 31.6522 473.931 31.6522 473.818 31.6522C473.59 31.6522 473.476 31.6522 473.363 31.5384C473.249 31.5384 473.135 31.4247 473.135 31.311C473.021 31.1972 473.022 31.0835 473.022 30.9698C473.022 30.856 473.022 30.7423 473.022 30.5148C472.908 30.7423 472.794 30.856 472.567 31.0835C472.453 31.1972 472.225 31.4247 472.112 31.4247C471.884 31.5384 471.77 31.6522 471.543 31.6522C470.747 31.6522 470.519 31.6522 470.178 31.6522ZM470.292 30.9698C470.633 30.9698 470.861 30.9698 471.088 30.856C471.315 30.7423 471.543 30.6286 471.77 30.5148C471.998 30.2874 472.112 30.1736 472.225 29.9462C472.339 29.7187 472.453 29.3775 472.453 29.15V28.1264C472.453 28.2401 472.339 28.2401 472.225 28.3539C472.112 28.3539 471.998 28.4676 471.884 28.4676C471.543 28.4676 471.202 28.5813 470.861 28.5813C470.519 28.5813 470.178 28.6951 469.951 28.8088C469.609 28.9225 469.382 29.0363 469.268 29.15C469.041 29.3775 469.041 29.6049 469.041 29.8324C469.041 30.0599 469.041 30.1736 469.155 30.4011C469.268 30.5148 469.382 30.6286 469.496 30.7423C469.609 30.856 469.723 30.9698 469.951 30.9698C469.837 30.9698 470.064 30.9698 470.292 30.9698Z" fill="#555555"/>
<path d="M474.727 25.1693H475.409V26.4204C475.637 25.9654 475.864 25.6243 476.319 25.3968C476.774 25.1693 477.229 25.0556 477.684 25.0556C478.139 25.0556 478.594 25.1693 478.935 25.283C479.276 25.5105 479.618 25.738 479.845 25.9655C480.073 26.3067 480.3 26.6479 480.414 26.9891C480.528 27.3303 480.641 27.7852 480.641 28.2402C480.641 28.6951 480.641 29.15 480.414 29.4912C480.3 29.9462 480.073 30.2874 479.845 30.5148C479.618 30.8561 479.276 31.0835 478.935 31.1972C478.594 31.4247 478.139 31.4247 477.684 31.4247C477.457 31.4247 477.229 31.4247 477.002 31.311C476.774 31.311 476.547 31.1973 476.319 31.0835C476.092 30.9698 475.978 30.856 475.751 30.6286C475.637 30.4011 475.523 30.2874 475.409 30.0599V33.5857H474.613V25.1693H474.727ZM477.798 30.9698C478.139 30.9698 478.48 30.856 478.708 30.7423C478.935 30.6286 479.163 30.4011 479.39 30.1736C479.504 29.9462 479.731 29.605 479.731 29.2638C479.845 28.9226 479.845 28.5814 479.845 28.2402C479.845 27.8989 479.845 27.5577 479.731 27.2165C479.618 26.8753 479.504 26.6478 479.39 26.3066C479.276 26.0792 479.049 25.8517 478.708 25.738C478.48 25.6242 478.139 25.5105 477.798 25.5105C477.343 25.5105 477.002 25.6242 476.774 25.738C476.547 25.8517 476.319 26.0792 476.092 26.3066C475.864 26.5341 475.751 26.8753 475.751 27.2165C475.637 27.5577 475.637 27.8989 475.637 28.2402C475.637 28.5814 475.637 28.9226 475.751 29.2638C475.864 29.605 475.978 29.8324 476.092 30.1736C476.319 30.4011 476.547 30.6286 476.774 30.7423C477.002 30.856 477.343 30.9698 477.798 30.9698Z" fill="#555555"/>
<path d="M481.779 25.1693H482.575V28.4676L486.101 25.1693H487.125L484.395 27.6715L487.239 31.5384H486.215L483.827 28.2401L482.575 29.3775V31.5384H481.779V25.1693Z" fill="#555555"/>
<path d="M489.627 31.6522C489.286 31.6522 489.059 31.6522 488.831 31.5384C488.604 31.4247 488.376 31.311 488.149 31.1972C487.921 31.0835 487.808 30.856 487.694 30.6286C487.58 30.4011 487.58 30.1736 487.58 29.8324C487.58 29.3775 487.694 29.0363 487.921 28.8088C488.149 28.5813 488.376 28.3539 488.717 28.2401C489.059 28.1264 489.4 28.0127 489.855 28.0127C490.31 28.0127 490.651 27.8989 491.106 27.8989C491.22 27.8989 491.447 27.8989 491.561 27.7852C491.675 27.6715 491.788 27.6715 491.902 27.6715C492.016 27.5577 492.016 27.5577 492.129 27.444C492.129 27.3302 492.243 27.2165 492.243 26.989C492.243 26.7616 492.243 26.5341 492.129 26.3066C492.016 26.1929 491.902 25.9654 491.788 25.9654C491.675 25.8517 491.447 25.8517 491.22 25.738C490.992 25.738 490.765 25.738 490.537 25.738C490.082 25.738 489.627 25.8517 489.286 26.0792C488.945 26.3066 488.831 26.6478 488.831 27.2165H488.035C488.035 26.4204 488.376 25.9654 488.831 25.6242C489.286 25.283 489.855 25.1693 490.651 25.1693C490.878 25.1693 491.22 25.1693 491.447 25.283C491.674 25.283 492.016 25.3968 492.243 25.6242C492.471 25.738 492.698 25.9654 492.812 26.1929C492.926 26.4204 493.039 26.7616 493.039 27.2165V30.5148C493.039 30.856 493.153 30.9698 493.494 30.9698C493.608 30.9698 493.722 30.9698 493.722 30.9698V31.6522C493.608 31.6522 493.608 31.6522 493.494 31.6522C493.381 31.6522 493.381 31.6522 493.267 31.6522C493.039 31.6522 492.926 31.6522 492.812 31.5384C492.698 31.5384 492.584 31.4247 492.584 31.311C492.471 31.1972 492.471 31.0835 492.471 30.9698C492.471 30.856 492.471 30.7423 492.471 30.5148C492.357 30.7423 492.243 30.856 492.016 31.0835C491.902 31.1972 491.675 31.4247 491.561 31.4247C491.333 31.5384 491.22 31.6522 490.992 31.6522C490.196 31.6522 489.968 31.6522 489.627 31.6522ZM489.741 30.9698C490.082 30.9698 490.31 30.9698 490.537 30.856C490.765 30.7423 490.992 30.6286 491.22 30.5148C491.447 30.2874 491.561 30.1736 491.675 29.9462C491.788 29.7187 491.902 29.3775 491.902 29.15V28.1264C491.902 28.2401 491.788 28.2401 491.675 28.3539C491.561 28.3539 491.447 28.4676 491.333 28.4676C490.992 28.4676 490.651 28.5813 490.31 28.5813C489.968 28.5813 489.627 28.6951 489.4 28.8088C489.059 28.9225 488.831 29.0363 488.717 29.15C488.49 29.3775 488.49 29.6049 488.49 29.8324C488.49 30.0599 488.49 30.1736 488.604 30.4011C488.717 30.5148 488.831 30.6286 488.945 30.7423C489.059 30.856 489.172 30.9698 489.4 30.9698C489.4 30.9698 489.514 30.9698 489.741 30.9698Z" fill="#555555"/>
<path d="M496.452 31.6521C495.656 31.6521 494.973 31.4247 494.518 31.0835C494.063 30.7423 493.836 30.1736 493.836 29.4912H494.632C494.632 29.7186 494.746 29.9461 494.86 30.0598C494.973 30.2873 495.087 30.4011 495.201 30.5148C495.315 30.6285 495.542 30.7422 495.769 30.856C495.997 30.9697 496.224 30.9697 496.566 30.9697C496.907 30.9697 497.248 30.9697 497.475 30.856C497.703 30.7422 497.817 30.6285 498.044 30.5148C498.158 30.4011 498.272 30.2873 498.272 30.0598C498.272 29.9461 498.385 29.7186 498.385 29.6049C498.385 29.2637 498.272 29.0362 498.044 28.8088C497.817 28.5813 497.475 28.4676 497.02 28.4676H495.997V27.8989H496.907C497.248 27.8989 497.589 27.7851 497.817 27.5577C498.044 27.3302 498.158 27.1027 498.158 26.6478C498.158 26.5341 498.158 26.4203 498.158 26.3066C498.158 26.1929 498.044 26.0791 497.93 25.9654C497.817 25.8517 497.703 25.7379 497.475 25.7379C497.248 25.6242 497.021 25.6242 496.679 25.6242C496.111 25.6242 495.656 25.7379 495.428 25.9654C495.201 26.1929 494.973 26.5341 494.973 26.8753H494.177C494.177 26.5341 494.291 26.1929 494.405 25.9654C494.518 25.7379 494.746 25.5105 494.973 25.3967C495.201 25.283 495.428 25.1692 495.769 25.0555C496.111 24.9418 496.338 24.9418 496.679 24.9418C497.021 24.9418 497.362 24.9418 497.589 25.0555C497.817 25.1692 498.158 25.1693 498.385 25.3967C498.613 25.5105 498.726 25.7379 498.84 25.9654C498.954 26.1929 499.068 26.4203 499.068 26.7615C499.068 26.989 499.068 27.1027 498.954 27.3302C498.84 27.4439 498.84 27.6714 498.727 27.7851C498.613 27.8989 498.499 28.0126 498.385 28.1264C498.272 28.2401 498.158 28.2401 498.044 28.2401C498.158 28.2401 498.385 28.3538 498.499 28.3538C498.613 28.4676 498.726 28.4675 498.84 28.5813C498.954 28.695 499.068 28.8088 499.068 29.0362C499.181 29.2637 499.181 29.3774 499.181 29.7186C499.181 30.0598 499.068 30.401 498.954 30.6285C498.84 30.856 498.613 31.0835 498.385 31.3109C498.158 31.5384 497.93 31.6521 497.589 31.6521C497.134 31.5384 496.793 31.6521 496.452 31.6521Z" fill="#555555"/>
<path d="M500.203 25.1693H500.999V30.6286L504.525 25.1693H505.435V31.5384H504.639V26.0792L501.113 31.5384H500.203V25.1693Z" fill="#555555"/>
<path d="M506.801 25.1693H507.597V30.6285L511.123 25.1693H512.033V31.5384H511.236V26.0791L507.711 31.5384H506.801V25.1693ZM509.417 24.2594C508.848 24.2594 508.507 24.1457 508.166 23.8044C507.824 23.577 507.711 23.122 507.597 22.6671H508.052C508.052 23.0083 508.166 23.2358 508.393 23.3495C508.621 23.577 508.848 23.577 509.303 23.577C509.644 23.577 509.985 23.4633 510.213 23.3495C510.44 23.122 510.554 22.8946 510.668 22.5534H511.123C511.009 23.122 510.895 23.4633 510.554 23.6907C510.327 24.0319 509.985 24.2594 509.417 24.2594Z" fill="#555555"/>
<path d="M519.652 31.6521C519.084 31.6521 518.629 31.5384 518.174 31.3109C517.833 31.0835 517.491 30.856 517.264 30.5148C517.037 30.1736 516.923 29.7186 516.809 29.2637C516.695 28.8088 516.695 28.3538 516.695 27.8989C516.695 27.5577 516.695 27.3302 516.695 26.989C516.695 26.6478 516.809 26.3066 516.809 25.9654C516.809 25.6242 516.923 25.283 517.037 25.0555C517.15 24.7143 517.264 24.4869 517.378 24.2594C517.719 23.8044 518.06 23.4632 518.401 23.3495C518.856 23.122 519.311 23.0083 519.88 23.0083H520.449C520.79 23.0083 521.017 23.0083 521.131 22.8945C521.245 22.8945 521.358 22.7808 521.358 22.6671H522.268C522.155 23.0083 522.041 23.3495 521.813 23.4632C521.586 23.577 521.131 23.6907 520.562 23.6907L519.652 23.8044C518.97 23.8044 518.401 24.1456 518.06 24.6006C517.719 25.0555 517.378 25.7379 517.264 26.7615C517.491 26.3066 517.833 25.9654 518.174 25.7379C518.629 25.5105 519.084 25.3967 519.539 25.3967C519.994 25.3967 520.335 25.5105 520.676 25.6242C521.017 25.7379 521.358 25.9654 521.586 26.3066C521.813 26.5341 522.041 26.8753 522.155 27.3302C522.268 27.7852 522.382 28.1264 522.382 28.695C522.382 29.15 522.268 29.6049 522.155 30.0598C522.041 30.5148 521.813 30.856 521.586 31.0835C521.358 31.4247 521.017 31.5384 520.676 31.7659C520.449 31.5384 520.107 31.6521 519.652 31.6521ZM519.652 30.9697C519.994 30.9697 520.221 30.856 520.562 30.7423C520.79 30.6285 521.017 30.4011 521.245 30.1736C521.472 29.9461 521.586 29.7187 521.7 29.3774C521.813 29.0362 521.813 28.695 521.813 28.3538C521.813 28.0126 521.813 27.6714 521.7 27.3302C521.586 26.989 521.472 26.7615 521.245 26.5341C521.017 26.3066 520.79 26.0791 520.562 25.9654C520.335 25.8517 519.994 25.7379 519.766 25.7379C519.425 25.7379 519.198 25.8517 518.856 25.9654C518.629 26.0791 518.401 26.3066 518.174 26.5341C517.946 26.7615 517.833 26.989 517.719 27.3302C517.605 27.6714 517.605 28.0126 517.605 28.3538C517.605 28.695 517.605 29.15 517.719 29.3774C517.833 29.7187 517.946 29.9461 518.174 30.1736C518.401 30.4011 518.629 30.6285 518.856 30.7423C519.084 30.9697 519.311 30.9697 519.652 30.9697Z" fill="#555555"/>
<path d="M525.453 31.6522C525.112 31.6522 524.885 31.6522 524.657 31.5384C524.43 31.4247 524.202 31.311 523.975 31.1972C523.747 31.0835 523.634 30.856 523.52 30.6286C523.406 30.4011 523.406 30.1736 523.406 29.8324C523.406 29.3775 523.52 29.0363 523.747 28.8088C523.975 28.5813 524.202 28.3539 524.544 28.2401C524.885 28.1264 525.226 28.0127 525.681 28.0127C526.136 28.0127 526.477 27.8989 526.932 27.8989C527.046 27.8989 527.273 27.8989 527.387 27.7852C527.501 27.6715 527.614 27.6715 527.728 27.6715C527.842 27.5577 527.842 27.5577 527.956 27.444C527.956 27.3302 528.069 27.2165 528.069 26.989C528.069 26.7616 528.069 26.5341 527.956 26.3066C527.842 26.1929 527.728 25.9654 527.614 25.9654C527.501 25.8517 527.273 25.8517 527.046 25.738C526.818 25.738 526.591 25.738 526.363 25.738C525.908 25.738 525.453 25.8517 525.112 26.0792C524.771 26.3066 524.657 26.6478 524.657 27.2165H523.861C523.861 26.4204 524.202 25.9654 524.657 25.6242C525.112 25.283 525.681 25.1693 526.477 25.1693C526.705 25.1693 527.046 25.1693 527.273 25.283C527.501 25.283 527.842 25.3968 528.069 25.6242C528.297 25.738 528.524 25.9654 528.638 26.1929C528.752 26.4204 528.866 26.7616 528.866 27.2165V30.5148C528.866 30.856 528.979 30.9698 529.32 30.9698C529.434 30.9698 529.548 30.9698 529.548 30.9698V31.6522C529.434 31.6522 529.434 31.6522 529.32 31.6522C529.207 31.6522 529.207 31.6522 529.093 31.6522C528.866 31.6522 528.752 31.6522 528.638 31.5384C528.524 31.5384 528.411 31.4247 528.411 31.311C528.297 31.1972 528.297 31.0835 528.297 30.9698C528.297 30.856 528.297 30.7423 528.297 30.5148C528.183 30.7423 528.069 30.856 527.842 31.0835C527.728 31.1972 527.501 31.4247 527.387 31.4247C527.159 31.5384 527.046 31.6522 526.818 31.6522C526.022 31.6522 525.795 31.6522 525.453 31.6522ZM525.567 30.9698C525.908 30.9698 526.136 30.9698 526.363 30.856C526.591 30.7423 526.818 30.6286 527.046 30.5148C527.273 30.2874 527.387 30.1736 527.501 29.9462C527.614 29.7187 527.728 29.3775 527.728 29.15V28.1264C527.728 28.2401 527.614 28.2401 527.501 28.3539C527.387 28.3539 527.273 28.4676 527.159 28.4676C526.818 28.4676 526.477 28.5813 526.136 28.5813C525.795 28.5813 525.453 28.6951 525.226 28.8088C524.885 28.9225 524.657 29.0363 524.544 29.15C524.316 29.3775 524.316 29.6049 524.316 29.8324C524.316 30.0599 524.316 30.1736 524.43 30.4011C524.544 30.5148 524.657 30.6286 524.771 30.7423C524.885 30.856 524.999 30.9698 525.226 30.9698C525.226 30.9698 525.34 30.9698 525.567 30.9698Z" fill="#555555"/>
<path d="M530.004 25.1693H530.8V27.7852H534.44V25.1693H535.236V31.5384H534.44V28.5813H530.8V31.5384H530.004V25.1693Z" fill="#555555"/>
<path d="M536.6 25.1693H537.396V28.4676L540.922 25.1693H541.945L539.215 27.6715L542.059 31.5384H541.035L538.647 28.2401L537.396 29.3775V31.5384H536.6V25.1693Z" fill="#555555"/>
<path d="M542.742 25.1693H543.538V30.6286L547.064 25.1693H547.974V31.5384H547.178V26.0792L543.652 31.5384H542.742V25.1693Z" fill="#555555"/>
<path d="M315.272 42.1158H317.206L324.485 60.5408H322.551L320.276 54.8541H311.86L309.585 60.5408H307.766L315.272 42.1158ZM319.822 53.2618L316.296 43.8218L312.656 53.2618H319.822Z" fill="#555555"/>
<path d="M330.628 50.9871L324.372 42.002H326.42L331.651 49.736L336.997 42.002H338.931L332.675 50.9871L339.385 60.4271H337.224L331.651 52.2381L325.965 60.4271H324.031L330.628 50.9871Z" fill="#555555"/>
<path d="M340.975 42.1158H353.713V43.5943H342.681V49.8498H349.619C351.325 49.8498 352.69 50.3047 353.6 51.2146C354.509 52.1244 355.078 53.4893 355.078 55.0815C355.078 56.7876 354.623 58.0387 353.6 58.9485C352.69 59.8584 351.325 60.3134 349.619 60.3134H340.861V42.1158H340.975ZM349.391 59.0623C350.643 59.0623 351.666 58.7211 352.462 58.0387C353.145 57.3563 353.6 56.4464 353.6 55.1953C353.6 54.0579 353.258 53.0343 352.462 52.3519C351.78 51.6695 350.756 51.3283 349.391 51.3283H342.795V58.9485H349.391V59.0623Z" fill="#555555"/>
<path d="M365.998 60.882C364.519 60.882 363.268 60.6546 362.131 60.0859C360.993 59.5172 360.084 58.8348 359.401 57.9249C358.719 57.0151 358.15 55.9914 357.809 54.8541C357.468 53.7167 357.24 52.4657 357.24 51.2146C357.24 49.9635 357.468 48.7124 357.809 47.5751C358.15 46.4377 358.719 45.4141 359.401 44.5042C360.084 43.5943 360.993 42.9119 362.131 42.3433C363.268 41.7746 364.519 41.5471 365.998 41.5471C367.476 41.5471 368.727 41.7746 369.751 42.3433C370.888 42.9119 371.685 43.5943 372.481 44.5042C373.163 45.4141 373.732 46.4377 374.073 47.5751C374.414 48.7124 374.642 49.9635 374.642 51.2146C374.642 52.4657 374.414 53.7167 374.073 54.8541C373.732 55.9914 373.163 57.0151 372.481 57.9249C371.798 58.8348 370.888 59.5172 369.751 60.0859C368.727 60.6546 367.363 60.882 365.998 60.882ZM365.998 59.4035C367.249 59.4035 368.273 59.176 369.069 58.7211C369.979 58.2661 370.661 57.6975 371.23 56.9013C371.798 56.1052 372.253 55.309 372.481 54.2854C372.708 53.3755 372.936 52.3519 372.936 51.3283C372.936 50.3047 372.822 49.3948 372.481 48.3712C372.253 47.3476 371.798 46.5514 371.23 45.7553C370.661 44.9592 369.979 44.3905 369.069 43.9355C368.159 43.4806 367.135 43.2531 365.998 43.2531C364.747 43.2531 363.723 43.4806 362.813 43.9355C361.903 44.3905 361.221 44.9592 360.652 45.7553C360.084 46.5514 359.629 47.3476 359.401 48.3712C359.174 49.3948 358.946 50.3047 358.946 51.3283C358.946 52.3519 359.06 53.3755 359.401 54.2854C359.629 55.1953 360.084 56.1052 360.652 56.9013C361.221 57.6975 361.903 58.2661 362.813 58.7211C363.723 59.176 364.747 59.4035 365.998 59.4035Z" fill="#555555"/>
<path d="M377.371 42.1158H385.56C386.356 42.1158 387.152 42.2295 387.835 42.457C388.517 42.6845 389.086 43.0257 389.541 43.4806C389.996 43.9355 390.451 44.5042 390.678 45.1866C390.906 45.869 391.019 46.5514 391.019 47.4613C391.019 48.2575 390.906 49.0536 390.678 49.736C390.451 50.4184 389.996 50.9871 389.541 51.442C389.086 51.897 388.517 52.2382 387.835 52.4656C387.152 52.6931 386.47 52.8069 385.56 52.8069H379.077V60.6546H377.371V42.1158ZM385.219 51.1008C386.47 51.1008 387.38 50.7596 388.176 50.1909C388.972 49.6223 389.313 48.5987 389.313 47.3476C389.313 46.0965 388.972 45.0729 388.176 44.5042C387.38 43.9355 386.47 43.5943 385.219 43.5943H379.191V51.1008H385.219V51.1008Z" fill="#555555"/>
<path d="M401.369 60.882C399.89 60.882 398.639 60.6546 397.502 60.0859C396.365 59.5172 395.455 58.8348 394.772 57.9249C394.09 57.0151 393.521 55.9914 393.18 54.8541C392.839 53.7167 392.611 52.4657 392.611 51.2146C392.611 49.9635 392.839 48.7124 393.18 47.5751C393.521 46.4377 394.09 45.4141 394.772 44.5042C395.455 43.5943 396.365 42.9119 397.502 42.3433C398.639 41.7746 399.89 41.5471 401.369 41.5471C402.847 41.5471 404.099 41.7746 405.122 42.3433C406.146 42.9119 407.056 43.5943 407.852 44.5042C408.534 45.4141 409.103 46.4377 409.444 47.5751C409.785 48.7124 410.013 49.9635 410.013 51.2146C410.013 52.4657 409.785 53.7167 409.444 54.8541C409.103 55.9914 408.534 57.0151 407.852 57.9249C407.169 58.8348 406.26 59.5172 405.122 60.0859C404.099 60.6546 402.847 60.882 401.369 60.882ZM401.369 59.4035C402.62 59.4035 403.644 59.176 404.44 58.7211C405.35 58.2661 406.032 57.6975 406.601 56.9013C407.169 56.1052 407.624 55.309 407.852 54.2854C408.079 53.3755 408.307 52.3519 408.307 51.3283C408.307 50.3047 408.193 49.3948 407.852 48.3712C407.624 47.3476 407.169 46.5514 406.601 45.7553C406.032 44.9592 405.35 44.3905 404.44 43.9355C403.53 43.4806 402.506 43.2531 401.369 43.2531C400.118 43.2531 399.094 43.4806 398.184 43.9355C397.274 44.3905 396.592 44.9592 396.023 45.7553C395.455 46.5514 395 47.3476 394.772 48.3712C394.545 49.3948 394.317 50.3047 394.317 51.3283C394.317 52.3519 394.431 53.3755 394.772 54.2854C395 55.1953 395.455 56.1052 396.023 56.9013C396.592 57.6975 397.274 58.2661 398.184 58.7211C399.094 59.176 400.118 59.4035 401.369 59.4035Z" fill="#555555"/>
<path d="M417.291 43.5943H410.922V42.1158H425.48V43.5943H418.997V60.5408H417.291V43.5943V43.5943Z" fill="#555555"/>
<path d="M426.732 60.6546C426.619 60.6546 426.505 60.6546 426.391 60.6546C426.278 60.6546 426.05 60.6546 425.936 60.6546C425.823 60.6546 425.595 60.6545 425.481 60.5408C425.368 60.5408 425.254 60.5408 425.254 60.4271V58.9485C425.368 59.0623 425.595 59.0623 425.936 59.0623C426.277 59.0623 426.391 59.0623 426.619 59.0623C426.846 59.0623 427.074 59.0623 427.301 58.9485C427.529 58.9485 427.87 58.7211 428.097 58.4936C428.325 58.2661 428.666 57.8112 428.893 57.2425C429.235 56.6738 429.462 55.8777 429.69 54.7403C429.917 53.7167 430.031 52.3519 430.258 50.6459C430.372 48.9399 430.486 47.0064 430.486 44.5042V41.8883H441.859V60.5408H440.153V43.5943H432.305V44.6179C432.305 47.3476 432.192 49.5085 432.078 51.442C431.851 53.2618 431.623 54.7403 431.396 55.9914C431.054 57.2425 430.827 58.1524 430.372 58.721C430.031 59.4035 429.576 59.8584 429.235 60.0859C428.893 60.4271 428.438 60.5408 428.097 60.6546C427.301 60.6546 426.96 60.6546 426.732 60.6546Z" fill="#555555"/>
<path d="M450.729 42.1158H452.663L459.942 60.5408H458.008L455.733 54.8541H447.317L445.042 60.5408H443.223L450.729 42.1158ZM455.165 53.2618L451.639 43.8218L448 53.2618H455.165Z" fill="#555555"/>
<path d="M461.649 42.1158H463.355V59.0623H472.112V42.1158H473.819V59.0623H482.576V42.1158H484.282V60.5408H461.535V42.1158H461.649Z" fill="#555555"/>
<path d="M492.473 43.5943H486.104V42.1158H500.662V43.5943H494.179V60.5408H492.473V43.5943Z" fill="#555555"/>
<path d="M502.479 42.1158H504.185V58.7211L514.762 42.1158H517.037V60.5408H515.331V43.9355L504.753 60.5408H502.479V42.1158Z" fill="#555555"/>
<path d="M520.791 42.1158H528.98C529.776 42.1158 530.572 42.2295 531.255 42.457C531.937 42.6845 532.506 43.0257 532.961 43.4806C533.416 43.9355 533.87 44.5042 534.098 45.1866C534.325 45.869 534.439 46.5514 534.439 47.4613C534.439 48.2575 534.325 49.0536 534.098 49.736C533.87 50.4184 533.416 50.9871 532.961 51.442C532.506 51.897 531.937 52.2382 531.255 52.4656C530.572 52.6931 529.89 52.8069 528.98 52.8069H522.497V60.6546H520.791V42.1158ZM528.525 51.1008C529.776 51.1008 530.686 50.7596 531.482 50.1909C532.278 49.6223 532.619 48.5987 532.619 47.3476C532.619 46.0965 532.278 45.0729 531.482 44.5042C530.686 43.9355 529.776 43.5943 528.525 43.5943H522.497V51.1008H528.525V51.1008Z" fill="#555555"/>
<path d="M537.055 42.1158H538.761V58.7211L549.338 42.1158H551.613V60.5408H549.907V43.9355L539.329 60.5408H537.055V42.1158Z" fill="#555555"/>
<path d="M555.366 42.1158H557.072V59.0623H565.829V42.1158H567.535V59.0623H576.293V42.1158H577.999V60.5408H555.252V42.1158H555.366Z" fill="#555555"/>
<path d="M309.928 71.1182H322.667V72.5967H311.634V78.8521H318.572C320.278 78.8521 321.643 79.3071 322.553 80.2169C323.463 81.1268 324.031 82.4917 324.031 84.0839C324.031 85.79 323.576 87.041 322.553 87.9509C321.643 88.8608 320.278 89.3157 318.572 89.3157H309.814V71.1182H309.928ZM318.231 88.0647C319.482 88.0647 320.506 87.7234 321.302 87.041C321.984 86.3586 322.439 85.4487 322.439 84.1977C322.439 83.0603 322.098 82.0367 321.302 81.3543C320.619 80.6719 319.596 80.3307 318.231 80.3307H311.634V87.9509H318.231V88.0647Z" fill="#555555"/>
<path d="M334.834 89.8844C333.355 89.8844 332.104 89.657 330.967 89.0883C329.829 88.5196 328.92 87.8372 328.237 86.9273C327.555 86.0174 326.986 84.9938 326.645 83.8565C326.304 82.7191 326.076 81.468 326.076 80.2169C326.076 78.9659 326.304 77.7148 326.645 76.5774C326.986 75.4401 327.555 74.4165 328.237 73.5066C328.92 72.5967 329.829 71.9143 330.967 71.3456C332.104 70.777 333.355 70.5495 334.834 70.5495C336.312 70.5495 337.563 70.777 338.587 71.3456C339.611 71.9143 340.52 72.5967 341.317 73.5066C341.999 74.4165 342.568 75.4401 342.909 76.5774C343.25 77.7148 343.478 78.9659 343.478 80.2169C343.478 81.468 343.25 82.7191 342.909 83.8565C342.568 84.9938 341.999 86.0174 341.317 86.9273C340.634 87.8372 339.724 88.5196 338.587 89.0883C337.563 89.657 336.312 89.8844 334.834 89.8844ZM334.834 88.4059C336.085 88.4059 337.108 88.1784 337.905 87.7235C338.814 87.2685 339.497 86.6998 340.066 85.9037C340.634 85.1075 341.089 84.3114 341.317 83.2878C341.544 82.3779 341.772 81.3543 341.772 80.3307C341.772 79.3071 341.658 78.3972 341.317 77.3736C341.089 76.35 340.634 75.5538 340.066 74.7577C339.497 73.9615 338.814 73.3929 337.905 72.9379C336.995 72.483 335.971 72.2555 334.834 72.2555C333.583 72.2555 332.559 72.483 331.649 72.9379C330.739 73.3929 330.057 73.9615 329.488 74.7577C328.92 75.5538 328.465 76.35 328.237 77.3736C328.01 78.3972 327.782 79.3071 327.782 80.3307C327.782 81.3543 327.896 82.3779 328.237 83.2878C328.465 84.1977 328.92 85.1075 329.488 85.9037C330.057 86.6998 330.739 87.2685 331.649 87.7235C332.559 88.1784 333.696 88.4059 334.834 88.4059Z" fill="#555555"/>
<path d="M346.323 71.1182H348.029V88.0647H356.786V71.1182H358.492V88.0647H367.25V71.1182H368.956V89.5432H346.209V71.1182H346.323Z" fill="#555555"/>
<path d="M379.873 71.1182H382.489L388.858 87.2685L395.227 71.1182H397.843V89.5432H396.137V73.6203L389.882 89.5432H388.176L381.807 73.6203V89.5432H379.873V71.1182Z" fill="#555555"/>
<path d="M406.829 71.1182H408.762L416.041 89.5432H414.108L411.833 83.8565H403.417L401.142 89.5432H399.322L406.829 71.1182ZM411.264 82.3779L407.739 72.9379L404.099 82.3779H411.264Z" fill="#555555"/>
<path d="M417.746 71.1182H425.935C426.731 71.1182 427.527 71.2319 428.21 71.4594C428.892 71.6868 429.461 72.028 429.916 72.483C430.371 72.9379 430.826 73.5066 431.053 74.189C431.281 74.8714 431.394 75.5538 431.394 76.4637C431.394 77.3736 431.281 78.056 431.053 78.7384C430.826 79.4208 430.371 79.9895 429.916 80.4444C429.461 80.8994 428.892 81.2406 428.21 81.468C427.527 81.6955 426.845 81.8092 425.935 81.8092H419.452V89.6569H417.746V71.1182ZM425.48 80.2169C426.731 80.2169 427.641 79.8757 428.437 79.3071C429.233 78.7384 429.575 77.7148 429.575 76.4637C429.575 75.2126 429.233 74.189 428.437 73.6203C427.641 73.0517 426.731 72.7104 425.48 72.7104H419.452V80.2169H425.48Z" fill="#555555"/>
<path d="M434.012 71.1182H435.718V81.0131L446.409 71.1182H448.797L440.608 78.7384L449.252 89.5432H446.978L439.357 79.9895L435.832 83.2878V89.6569H434.125V71.1182H434.012Z" fill="#555555"/>
<path d="M456.077 71.1182H458.01L465.289 89.5432H463.356L461.081 83.8565H452.665L450.39 89.5432H448.57L456.077 71.1182ZM460.626 82.3779L457.1 72.9379L453.461 82.3779H460.626Z" fill="#555555"/>
<path d="M473.478 89.9981C472.341 89.9981 471.317 89.8844 470.407 89.5432C469.497 89.3157 468.701 88.8608 468.133 88.2921C467.45 87.7234 466.995 87.041 466.654 86.3586C466.313 85.5625 466.199 84.6526 466.199 83.7427V83.629H467.905C467.905 85.335 468.474 86.5861 469.497 87.3822C470.521 88.1784 472 88.6333 473.706 88.6333C474.502 88.6333 475.184 88.5196 475.753 88.2921C476.322 88.0646 476.89 87.7234 477.345 87.3822C477.8 87.041 478.141 86.4723 478.369 86.0174C478.596 85.4487 478.71 84.88 478.71 84.3114C478.71 83.7427 478.596 83.2878 478.369 82.8328C478.141 82.3779 477.8 82.0367 477.459 81.6955C477.118 81.3543 476.663 81.1268 476.094 81.0131C475.639 80.7856 475.071 80.7856 474.502 80.7856H471.545V79.307H474.502C474.957 79.307 475.412 79.1933 475.867 79.0796C476.322 78.9658 476.663 78.7384 477.004 78.5109C477.345 78.2834 477.573 77.9422 477.8 77.4873C478.028 77.0323 478.141 76.5774 478.141 76.1225C478.141 75.4401 478.028 74.9851 477.8 74.5302C477.573 74.0752 477.231 73.734 476.89 73.3928C476.549 73.0516 475.98 72.8242 475.525 72.7104C474.957 72.5967 474.388 72.483 473.819 72.483C473.137 72.483 472.455 72.5967 471.772 72.7104C471.204 72.9379 470.635 73.1654 470.18 73.5066C469.725 73.8478 469.384 74.3027 469.043 74.8714C468.701 75.4401 468.588 76.0087 468.588 76.6912H466.882C466.882 75.7813 467.109 74.8714 467.45 74.189C467.791 73.5066 468.246 72.9379 468.929 72.3692C469.497 71.9143 470.294 71.5731 471.09 71.3456C471.886 71.1181 472.796 71.0044 473.819 71.0044C474.729 71.0044 475.525 71.1181 476.208 71.3456C477.004 71.5731 477.686 71.8005 478.255 72.2555C478.824 72.7104 479.279 73.1654 479.62 73.8478C479.961 74.5302 480.075 75.2126 480.075 76.1225C480.075 76.5774 479.961 77.0323 479.847 77.4873C479.734 77.9422 479.506 78.2834 479.279 78.6246C479.051 78.9658 478.71 79.1933 478.369 79.5345C478.028 79.762 477.686 79.9895 477.345 80.1032V80.2169C478.369 80.4444 479.051 81.0131 479.734 81.6955C480.302 82.3779 480.643 83.4015 480.643 84.6526C480.643 85.2213 480.53 85.7899 480.302 86.4723C480.075 87.1547 479.734 87.7234 479.165 88.4058C478.596 88.9745 477.914 89.4294 477.004 89.8844C475.867 89.7706 474.843 89.9981 473.478 89.9981Z" fill="#555555"/>
<path d="M483.145 71.1182H484.851V87.7234L495.428 71.1182H497.703V89.5432H495.997V73.0517L485.419 89.6569H483.145V71.1182Z" fill="#555555"/>
</svg>

